<svg width="54" height="61" viewBox="0 0 54 61" fill="none" xmlns="http://www.w3.org/2000/svg">
<path fill-rule="evenodd" clip-rule="evenodd" d="M31.2648 58.6043C32.3836 57.4855 33.0121 55.9682 33.0121 54.386H21.0809C21.0809 55.9682 21.7094 57.4855 22.8282 58.6043C23.9469 59.7231 25.4643 60.3516 27.0465 60.3516C28.6287 60.3516 30.1461 59.7231 31.2648 58.6043ZM29.1557 1.56896C28.5963 1.00957 27.8376 0.695312 27.0465 0.695312C26.2554 0.695312 25.4967 1.00957 24.9373 1.56896C24.378 2.12835 24.0637 2.88704 24.0637 3.67813V6.89957C15.5925 8.33132 9.14962 15.6989 9.14962 24.5578V42.4547L0.201172 51.4032H53.8918L44.9434 42.4547V24.5578C44.9434 15.6989 38.5005 8.33132 30.0293 6.89957V3.67813C30.0293 2.88704 29.7151 2.12835 29.1557 1.56896ZM29.6189 42.2806H24.4752V33.0953H15.2899V27.9516H24.4752V18.7665H29.6189L29.6189 27.9516H38.804V33.0953H29.6189L29.6189 42.2806Z" fill="white"/>
</svg>
